<mxfile host="app.diagrams.net" modified="2024-02-29T12:40:56.583Z" agent="Mozilla/5.0 (Windows NT 10.0; Win64; x64) AppleWebKit/537.36 (KHTML, like Gecko) Chrome/121.0.0.0 Safari/537.36" etag="cxRVBLJKbhR57rCpnHqd" version="23.1.8" type="github">
  <diagram name="Página-1" id="xqZm3OeOIcqmaX5Jw5Vl">
    <mxGraphModel dx="992" dy="1604" grid="1" gridSize="10" guides="1" tooltips="1" connect="1" arrows="1" fold="1" page="1" pageScale="1" pageWidth="827" pageHeight="1169" math="0" shadow="0">
      <root>
        <mxCell id="0" />
        <mxCell id="1" parent="0" />
        <mxCell id="J_LhJDZ0nFHOFJ-zewbs-143" value="Produto" style="rounded=1;whiteSpace=wrap;html=1;" vertex="1" parent="1">
          <mxGeometry x="210" y="140" width="130" height="35" as="geometry" />
        </mxCell>
        <mxCell id="J_LhJDZ0nFHOFJ-zewbs-145" value="Contem" style="rhombus;whiteSpace=wrap;html=1;" vertex="1" parent="1">
          <mxGeometry x="460" y="130" width="70" height="55" as="geometry" />
        </mxCell>
        <mxCell id="J_LhJDZ0nFHOFJ-zewbs-146" value="Encomenda" style="rounded=1;whiteSpace=wrap;html=1;" vertex="1" parent="1">
          <mxGeometry x="607.5" y="137.5" width="130" height="35" as="geometry" />
        </mxCell>
        <mxCell id="J_LhJDZ0nFHOFJ-zewbs-151" value="fornece" style="rhombus;whiteSpace=wrap;html=1;" vertex="1" parent="1">
          <mxGeometry x="643.75" y="220" width="57.5" height="50" as="geometry" />
        </mxCell>
        <mxCell id="J_LhJDZ0nFHOFJ-zewbs-152" value="Fornecedor" style="rounded=1;whiteSpace=wrap;html=1;" vertex="1" parent="1">
          <mxGeometry x="607.5" y="317.5" width="130" height="35" as="geometry" />
        </mxCell>
        <mxCell id="J_LhJDZ0nFHOFJ-zewbs-156" value="" style="line;strokeWidth=2;html=1;" vertex="1" parent="1">
          <mxGeometry x="340" y="152.5" width="120" height="10" as="geometry" />
        </mxCell>
        <mxCell id="J_LhJDZ0nFHOFJ-zewbs-159" value="" style="line;strokeWidth=2;html=1;direction=south;" vertex="1" parent="1">
          <mxGeometry x="667.5" y="270" width="10" height="47.5" as="geometry" />
        </mxCell>
        <mxCell id="J_LhJDZ0nFHOFJ-zewbs-161" value="N" style="text;html=1;align=center;verticalAlign=middle;whiteSpace=wrap;rounded=0;" vertex="1" parent="1">
          <mxGeometry x="340" y="130" width="60" height="30" as="geometry" />
        </mxCell>
        <mxCell id="J_LhJDZ0nFHOFJ-zewbs-162" value="M" style="text;html=1;align=center;verticalAlign=middle;whiteSpace=wrap;rounded=0;" vertex="1" parent="1">
          <mxGeometry x="550" y="130" width="60" height="30" as="geometry" />
        </mxCell>
        <mxCell id="J_LhJDZ0nFHOFJ-zewbs-163" value="N" style="text;html=1;align=center;verticalAlign=middle;whiteSpace=wrap;rounded=0;" vertex="1" parent="1">
          <mxGeometry x="630" y="172.5" width="60" height="30" as="geometry" />
        </mxCell>
        <mxCell id="J_LhJDZ0nFHOFJ-zewbs-164" value="1" style="text;html=1;align=center;verticalAlign=middle;whiteSpace=wrap;rounded=0;" vertex="1" parent="1">
          <mxGeometry x="610" y="287.5" width="60" height="30" as="geometry" />
        </mxCell>
        <mxCell id="J_LhJDZ0nFHOFJ-zewbs-166" value="" style="shape=link;html=1;rounded=0;" edge="1" parent="1">
          <mxGeometry width="100" relative="1" as="geometry">
            <mxPoint x="530" y="157.27999999999997" as="sourcePoint" />
            <mxPoint x="610" y="157" as="targetPoint" />
          </mxGeometry>
        </mxCell>
        <mxCell id="J_LhJDZ0nFHOFJ-zewbs-167" value="é" style="rhombus;whiteSpace=wrap;html=1;" vertex="1" parent="1">
          <mxGeometry x="460" y="307.5" width="70" height="55" as="geometry" />
        </mxCell>
        <mxCell id="J_LhJDZ0nFHOFJ-zewbs-169" value="" style="shape=link;html=1;rounded=0;exitX=0.5;exitY=1;exitDx=0;exitDy=0;" edge="1" parent="1" source="J_LhJDZ0nFHOFJ-zewbs-146">
          <mxGeometry width="100" relative="1" as="geometry">
            <mxPoint x="672" y="180" as="sourcePoint" />
            <mxPoint x="672.14" y="222.5" as="targetPoint" />
          </mxGeometry>
        </mxCell>
        <mxCell id="J_LhJDZ0nFHOFJ-zewbs-170" value="" style="shape=link;html=1;rounded=0;" edge="1" parent="1">
          <mxGeometry width="100" relative="1" as="geometry">
            <mxPoint x="527.5" y="334.91999999999996" as="sourcePoint" />
            <mxPoint x="607.5" y="334.64" as="targetPoint" />
          </mxGeometry>
        </mxCell>
        <mxCell id="J_LhJDZ0nFHOFJ-zewbs-171" value="N" style="text;html=1;align=center;verticalAlign=middle;whiteSpace=wrap;rounded=0;" vertex="1" parent="1">
          <mxGeometry x="560" y="307.5" width="60" height="30" as="geometry" />
        </mxCell>
        <mxCell id="J_LhJDZ0nFHOFJ-zewbs-172" value="" style="line;strokeWidth=2;html=1;" vertex="1" parent="1">
          <mxGeometry x="340" y="330" width="120" height="10" as="geometry" />
        </mxCell>
        <mxCell id="J_LhJDZ0nFHOFJ-zewbs-173" value="Tipo Fornecedor" style="rounded=1;whiteSpace=wrap;html=1;" vertex="1" parent="1">
          <mxGeometry x="210" y="317.5" width="130" height="35" as="geometry" />
        </mxCell>
        <mxCell id="J_LhJDZ0nFHOFJ-zewbs-175" value="Código (PRIMARY KEY)" style="ellipse;whiteSpace=wrap;html=1;" vertex="1" parent="1">
          <mxGeometry x="342.5" y="-30" width="160" height="30" as="geometry" />
        </mxCell>
        <mxCell id="J_LhJDZ0nFHOFJ-zewbs-176" value="nome" style="ellipse;whiteSpace=wrap;html=1;" vertex="1" parent="1">
          <mxGeometry x="402.5" y="70" width="67.5" height="30" as="geometry" />
        </mxCell>
        <mxCell id="J_LhJDZ0nFHOFJ-zewbs-177" value="taxa" style="ellipse;whiteSpace=wrap;html=1;" vertex="1" parent="1">
          <mxGeometry x="90" y="-30" width="67.5" height="30" as="geometry" />
        </mxCell>
        <mxCell id="J_LhJDZ0nFHOFJ-zewbs-178" value="preço" style="ellipse;whiteSpace=wrap;html=1;" vertex="1" parent="1">
          <mxGeometry x="120" y="75" width="67.5" height="30" as="geometry" />
        </mxCell>
        <mxCell id="J_LhJDZ0nFHOFJ-zewbs-179" value="" style="endArrow=none;html=1;rounded=0;entryX=0;entryY=0.5;entryDx=0;entryDy=0;" edge="1" parent="1" target="J_LhJDZ0nFHOFJ-zewbs-176">
          <mxGeometry width="50" height="50" relative="1" as="geometry">
            <mxPoint x="337.5" y="140" as="sourcePoint" />
            <mxPoint x="387.5" y="90" as="targetPoint" />
          </mxGeometry>
        </mxCell>
        <mxCell id="J_LhJDZ0nFHOFJ-zewbs-180" value="" style="endArrow=none;html=1;rounded=0;entryX=0.201;entryY=0.912;entryDx=0;entryDy=0;entryPerimeter=0;" edge="1" parent="1" target="J_LhJDZ0nFHOFJ-zewbs-175">
          <mxGeometry width="50" height="50" relative="1" as="geometry">
            <mxPoint x="300" y="140" as="sourcePoint" />
            <mxPoint x="365.5" y="85" as="targetPoint" />
          </mxGeometry>
        </mxCell>
        <mxCell id="J_LhJDZ0nFHOFJ-zewbs-181" value="" style="endArrow=none;html=1;rounded=0;exitX=1;exitY=1;exitDx=0;exitDy=0;" edge="1" parent="1" source="J_LhJDZ0nFHOFJ-zewbs-178">
          <mxGeometry width="50" height="50" relative="1" as="geometry">
            <mxPoint x="166.25" y="200" as="sourcePoint" />
            <mxPoint x="216" y="150" as="targetPoint" />
          </mxGeometry>
        </mxCell>
        <mxCell id="J_LhJDZ0nFHOFJ-zewbs-182" value="" style="endArrow=none;html=1;rounded=0;entryX=1;entryY=1;entryDx=0;entryDy=0;exitX=0.25;exitY=0;exitDx=0;exitDy=0;" edge="1" parent="1" target="J_LhJDZ0nFHOFJ-zewbs-177">
          <mxGeometry width="50" height="50" relative="1" as="geometry">
            <mxPoint x="245" y="140" as="sourcePoint" />
            <mxPoint x="280" y="95" as="targetPoint" />
          </mxGeometry>
        </mxCell>
        <mxCell id="J_LhJDZ0nFHOFJ-zewbs-183" value="num_em_armazem" style="ellipse;whiteSpace=wrap;html=1;" vertex="1" parent="1">
          <mxGeometry x="200" y="-42.5" width="120" height="55" as="geometry" />
        </mxCell>
        <mxCell id="J_LhJDZ0nFHOFJ-zewbs-184" value="" style="endArrow=none;html=1;rounded=0;entryX=0.5;entryY=1;entryDx=0;entryDy=0;exitX=0.5;exitY=0;exitDx=0;exitDy=0;" edge="1" parent="1" target="J_LhJDZ0nFHOFJ-zewbs-183">
          <mxGeometry width="50" height="50" relative="1" as="geometry">
            <mxPoint x="297.5" y="137.5" as="sourcePoint" />
            <mxPoint x="400" y="90" as="targetPoint" />
            <Array as="points">
              <mxPoint x="290" y="110" />
            </Array>
          </mxGeometry>
        </mxCell>
        <mxCell id="J_LhJDZ0nFHOFJ-zewbs-185" value="num_unidades" style="ellipse;whiteSpace=wrap;html=1;" vertex="1" parent="1">
          <mxGeometry x="450.63" y="230" width="88.75" height="40" as="geometry" />
        </mxCell>
        <mxCell id="J_LhJDZ0nFHOFJ-zewbs-186" value="" style="endArrow=none;html=1;rounded=0;entryX=0.5;entryY=0;entryDx=0;entryDy=0;exitX=0.5;exitY=1;exitDx=0;exitDy=0;" edge="1" parent="1" target="J_LhJDZ0nFHOFJ-zewbs-185">
          <mxGeometry width="50" height="50" relative="1" as="geometry">
            <mxPoint x="496" y="185" as="sourcePoint" />
            <mxPoint x="480" y="225" as="targetPoint" />
          </mxGeometry>
        </mxCell>
        <mxCell id="J_LhJDZ0nFHOFJ-zewbs-187" value="num (PRIMARY KEY)" style="ellipse;whiteSpace=wrap;html=1;" vertex="1" parent="1">
          <mxGeometry x="732.5" y="32.5" width="160" height="30" as="geometry" />
        </mxCell>
        <mxCell id="J_LhJDZ0nFHOFJ-zewbs-188" value="" style="endArrow=none;html=1;rounded=0;entryX=0.5;entryY=1;entryDx=0;entryDy=0;exitX=1;exitY=0;exitDx=0;exitDy=0;" edge="1" parent="1" target="J_LhJDZ0nFHOFJ-zewbs-187" source="J_LhJDZ0nFHOFJ-zewbs-146">
          <mxGeometry width="50" height="50" relative="1" as="geometry">
            <mxPoint x="690" y="202.5" as="sourcePoint" />
            <mxPoint x="755.5" y="147.5" as="targetPoint" />
          </mxGeometry>
        </mxCell>
        <mxCell id="J_LhJDZ0nFHOFJ-zewbs-189" value="data" style="ellipse;whiteSpace=wrap;html=1;" vertex="1" parent="1">
          <mxGeometry x="638.75" y="55" width="67.5" height="30" as="geometry" />
        </mxCell>
        <mxCell id="J_LhJDZ0nFHOFJ-zewbs-190" value="" style="endArrow=none;html=1;rounded=0;entryX=0.5;entryY=1;entryDx=0;entryDy=0;exitX=0.5;exitY=0;exitDx=0;exitDy=0;" edge="1" parent="1" target="J_LhJDZ0nFHOFJ-zewbs-189" source="J_LhJDZ0nFHOFJ-zewbs-146">
          <mxGeometry width="50" height="50" relative="1" as="geometry">
            <mxPoint x="612.5" y="140" as="sourcePoint" />
            <mxPoint x="677.4999999999998" y="85" as="targetPoint" />
          </mxGeometry>
        </mxCell>
        <mxCell id="J_LhJDZ0nFHOFJ-zewbs-191" value="1" style="text;html=1;align=center;verticalAlign=middle;whiteSpace=wrap;rounded=0;" vertex="1" parent="1">
          <mxGeometry x="330" y="307.5" width="60" height="30" as="geometry" />
        </mxCell>
        <mxCell id="J_LhJDZ0nFHOFJ-zewbs-193" value="designação (PRIMARY KEY)" style="ellipse;whiteSpace=wrap;html=1;" vertex="1" parent="1">
          <mxGeometry x="190.63" y="397.5" width="168.75" height="40" as="geometry" />
        </mxCell>
        <mxCell id="J_LhJDZ0nFHOFJ-zewbs-194" value="" style="endArrow=none;html=1;rounded=0;entryX=0.5;entryY=0;entryDx=0;entryDy=0;exitX=0.5;exitY=1;exitDx=0;exitDy=0;" edge="1" parent="1" target="J_LhJDZ0nFHOFJ-zewbs-193">
          <mxGeometry width="50" height="50" relative="1" as="geometry">
            <mxPoint x="276.62" y="352.5" as="sourcePoint" />
            <mxPoint x="260.62" y="392.5" as="targetPoint" />
          </mxGeometry>
        </mxCell>
        <mxCell id="J_LhJDZ0nFHOFJ-zewbs-195" value="nif (PRIMARY KEY)" style="ellipse;whiteSpace=wrap;html=1;" vertex="1" parent="1">
          <mxGeometry x="610" y="397.5" width="130" height="40" as="geometry" />
        </mxCell>
        <mxCell id="J_LhJDZ0nFHOFJ-zewbs-196" value="" style="endArrow=none;html=1;rounded=0;entryX=0.5;entryY=0;entryDx=0;entryDy=0;exitX=0.5;exitY=1;exitDx=0;exitDy=0;" edge="1" parent="1" target="J_LhJDZ0nFHOFJ-zewbs-195">
          <mxGeometry width="50" height="50" relative="1" as="geometry">
            <mxPoint x="675.37" y="352.5" as="sourcePoint" />
            <mxPoint x="659.37" y="392.5" as="targetPoint" />
          </mxGeometry>
        </mxCell>
        <mxCell id="J_LhJDZ0nFHOFJ-zewbs-197" value="nome" style="ellipse;whiteSpace=wrap;html=1;" vertex="1" parent="1">
          <mxGeometry x="825" y="317.5" width="67.5" height="30" as="geometry" />
        </mxCell>
        <mxCell id="J_LhJDZ0nFHOFJ-zewbs-198" value="" style="endArrow=none;html=1;rounded=0;entryX=0;entryY=0.5;entryDx=0;entryDy=0;exitX=1;exitY=0.5;exitDx=0;exitDy=0;" edge="1" parent="1" target="J_LhJDZ0nFHOFJ-zewbs-197" source="J_LhJDZ0nFHOFJ-zewbs-152">
          <mxGeometry width="50" height="50" relative="1" as="geometry">
            <mxPoint x="760" y="387.5" as="sourcePoint" />
            <mxPoint x="810" y="337.5" as="targetPoint" />
          </mxGeometry>
        </mxCell>
        <mxCell id="J_LhJDZ0nFHOFJ-zewbs-199" value="endereço" style="ellipse;whiteSpace=wrap;html=1;" vertex="1" parent="1">
          <mxGeometry x="820.5" y="380" width="67.5" height="30" as="geometry" />
        </mxCell>
        <mxCell id="J_LhJDZ0nFHOFJ-zewbs-200" value="" style="endArrow=none;html=1;rounded=0;entryX=0;entryY=0.5;entryDx=0;entryDy=0;exitX=1;exitY=1;exitDx=0;exitDy=0;" edge="1" parent="1" target="J_LhJDZ0nFHOFJ-zewbs-199" source="J_LhJDZ0nFHOFJ-zewbs-152">
          <mxGeometry width="50" height="50" relative="1" as="geometry">
            <mxPoint x="732.5" y="397.5" as="sourcePoint" />
            <mxPoint x="805.5" y="400" as="targetPoint" />
          </mxGeometry>
        </mxCell>
        <mxCell id="J_LhJDZ0nFHOFJ-zewbs-201" value="fax" style="ellipse;whiteSpace=wrap;html=1;" vertex="1" parent="1">
          <mxGeometry x="523.03" y="419.26" width="67.5" height="30" as="geometry" />
        </mxCell>
        <mxCell id="J_LhJDZ0nFHOFJ-zewbs-202" value="" style="endArrow=none;html=1;rounded=0;entryX=0.5;entryY=0;entryDx=0;entryDy=0;exitX=0.188;exitY=1.021;exitDx=0;exitDy=0;exitPerimeter=0;" edge="1" parent="1" target="J_LhJDZ0nFHOFJ-zewbs-201">
          <mxGeometry width="50" height="50" relative="1" as="geometry">
            <mxPoint x="636.9699999999998" y="352.4950000000001" as="sourcePoint" />
            <mxPoint x="508.03" y="439.26" as="targetPoint" />
          </mxGeometry>
        </mxCell>
        <mxCell id="J_LhJDZ0nFHOFJ-zewbs-203" value="cond_pagamento" style="ellipse;whiteSpace=wrap;html=1;" vertex="1" parent="1">
          <mxGeometry x="755.53" y="435.88" width="114.47" height="30" as="geometry" />
        </mxCell>
        <mxCell id="J_LhJDZ0nFHOFJ-zewbs-204" value="" style="endArrow=none;html=1;rounded=0;entryX=0.5;entryY=0;entryDx=0;entryDy=0;exitX=0.799;exitY=0.986;exitDx=0;exitDy=0;exitPerimeter=0;" edge="1" parent="1" target="J_LhJDZ0nFHOFJ-zewbs-203" source="J_LhJDZ0nFHOFJ-zewbs-152">
          <mxGeometry width="50" height="50" relative="1" as="geometry">
            <mxPoint x="869.4699999999998" y="369.1150000000001" as="sourcePoint" />
            <mxPoint x="740.53" y="455.88" as="targetPoint" />
          </mxGeometry>
        </mxCell>
      </root>
    </mxGraphModel>
  </diagram>
</mxfile>
